<svg width="49" height="49" viewBox="0 0 49 49" fill="none" xmlns="http://www.w3.org/2000/svg">
<path d="M24.4993 43.896C23.6871 43.896 22.9082 43.5733 22.3338 42.999C21.7595 42.4247 21.4368 41.6457 21.4368 40.8335C21.4368 40.0213 21.7595 39.2423 22.3338 38.668C22.9082 38.0937 23.6871 37.771 24.4993 37.771H34.7077C34.9784 37.771 35.2381 37.6634 35.4295 37.472C35.621 37.2806 35.7285 37.0209 35.7285 36.7502V12.2502C35.7285 11.9794 35.621 11.7198 35.4295 11.5283C35.2381 11.3369 34.9784 11.2293 34.7077 11.2293H25.5202C24.708 11.2293 23.929 10.9067 23.3547 10.3323C22.7803 9.75801 22.4577 8.97905 22.4577 8.16683C22.4577 7.3546 22.7803 6.57565 23.3547 6.00132C23.929 5.42699 24.708 5.10433 25.5202 5.10433H34.7077C36.6029 5.10433 38.4204 5.85719 39.7605 7.19729C41.1007 8.5374 41.8535 10.355 41.8535 12.2502L41.8535 36.7502C41.8535 38.6454 41.1007 40.4629 39.7605 41.803C38.4204 43.1431 36.6029 43.896 34.7077 43.896H24.4993ZM12.1268 32.4422L6.35097 26.6643C5.77747 26.0901 5.45533 25.3117 5.45533 24.5002C5.45533 23.6886 5.77747 22.9102 6.35097 22.336L12.1248 16.5581C12.6993 15.9836 13.4785 15.6608 14.291 15.6608C15.1035 15.6608 15.8827 15.9836 16.4572 16.5581C17.0317 17.1326 17.3545 17.9118 17.3545 18.7243C17.3545 19.5368 17.0317 20.316 16.4572 20.8905L15.9101 21.4377H24.4993C25.3116 21.4377 26.0905 21.7603 26.6649 22.3346C27.2392 22.909 27.5618 23.6879 27.5618 24.5002C27.5618 25.3124 27.2392 26.0913 26.6649 26.6657C26.0905 27.24 25.3116 27.5627 24.4993 27.5627H15.9101L16.4572 28.1098C16.7416 28.3943 16.9671 28.732 17.1209 29.1036C17.2747 29.4752 17.3539 29.8735 17.3538 30.2757C17.3537 30.6779 17.2744 31.0762 17.1204 31.4478C16.9664 31.8193 16.7407 32.1569 16.4562 32.4412C16.1717 32.7256 15.834 32.9511 15.4624 33.1049C15.0908 33.2587 14.6925 33.3379 14.2903 33.3378C13.8881 33.3377 13.4898 33.2584 13.1183 33.1044C12.7467 32.9504 12.4091 32.7247 12.1248 32.4402L12.1268 32.4422Z" fill="#02676F"/>
</svg>
